<svg id="visual" viewBox="0 0 900 600" width="900" height="600" xmlns="http://www.w3.org/2000/svg" xmlns:xlink="http://www.w3.org/1999/xlink" version="1.1"><rect x="0" y="0" width="900" height="600" fill="#323030"></rect><path d="M0 301L21.5 297C43 293 86 285 128.8 276.2C171.7 267.3 214.3 257.7 257.2 254.8C300 252 343 256 385.8 256C428.7 256 471.3 252 514.2 256C557 260 600 272 642.8 276.8C685.7 281.7 728.3 279.3 771.2 271C814 262.7 857 248.3 878.5 241.2L900 234L900 0L878.5 0C857 0 814 0 771.2 0C728.3 0 685.7 0 642.8 0C600 0 557 0 514.2 0C471.3 0 428.7 0 385.8 0C343 0 300 0 257.2 0C214.3 0 171.7 0 128.8 0C86 0 43 0 21.5 0L0 0Z" fill="#413635"></path><path d="M0 197L21.5 192.5C43 188 86 179 128.8 185.3C171.7 191.7 214.3 213.3 257.2 214.3C300 215.3 343 195.7 385.8 187.8C428.7 180 471.3 184 514.2 187.5C557 191 600 194 642.8 206.2C685.7 218.3 728.3 239.7 771.2 236C814 232.3 857 203.7 878.5 189.3L900 175L900 0L878.5 0C857 0 814 0 771.2 0C728.3 0 685.7 0 642.8 0C600 0 557 0 514.2 0C471.3 0 428.7 0 385.8 0C343 0 300 0 257.2 0C214.3 0 171.7 0 128.8 0C86 0 43 0 21.5 0L0 0Z" fill="#513b34"></path><path d="M0 204L21.5 194.8C43 185.7 86 167.3 128.8 167.5C171.7 167.7 214.3 186.3 257.2 195.7C300 205 343 205 385.8 208.3C428.7 211.7 471.3 218.3 514.2 220.7C557 223 600 221 642.8 217C685.7 213 728.3 207 771.2 201.7C814 196.3 857 191.7 878.5 189.3L900 187L900 0L878.5 0C857 0 814 0 771.2 0C728.3 0 685.7 0 642.8 0C600 0 557 0 514.2 0C471.3 0 428.7 0 385.8 0C343 0 300 0 257.2 0C214.3 0 171.7 0 128.8 0C86 0 43 0 21.5 0L0 0Z" fill="#5d4130"></path><path d="M0 142L21.5 150.5C43 159 86 176 128.8 181C171.7 186 214.3 179 257.2 168.3C300 157.7 343 143.3 385.8 146.3C428.7 149.3 471.3 169.7 514.2 180.2C557 190.7 600 191.3 642.8 189C685.7 186.7 728.3 181.3 771.2 169.2C814 157 857 138 878.5 128.5L900 119L900 0L878.5 0C857 0 814 0 771.2 0C728.3 0 685.7 0 642.8 0C600 0 557 0 514.2 0C471.3 0 428.7 0 385.8 0C343 0 300 0 257.2 0C214.3 0 171.7 0 128.8 0C86 0 43 0 21.5 0L0 0Z" fill="#644a29"></path><path d="M0 141L21.5 137.2C43 133.3 86 125.7 128.8 125C171.7 124.3 214.3 130.7 257.2 130.3C300 130 343 123 385.8 122C428.7 121 471.3 126 514.2 132.3C557 138.7 600 146.3 642.8 151.8C685.7 157.3 728.3 160.7 771.2 161.3C814 162 857 160 878.5 159L900 158L900 0L878.5 0C857 0 814 0 771.2 0C728.3 0 685.7 0 642.8 0C600 0 557 0 514.2 0C471.3 0 428.7 0 385.8 0C343 0 300 0 257.2 0C214.3 0 171.7 0 128.8 0C86 0 43 0 21.5 0L0 0Z" fill="#665523"></path><path d="M0 96L21.5 96.3C43 96.7 86 97.3 128.8 96.7C171.7 96 214.3 94 257.2 96.2C300 98.3 343 104.7 385.8 110C428.7 115.3 471.3 119.7 514.2 116.3C557 113 600 102 642.8 99.3C685.7 96.7 728.3 102.3 771.2 108C814 113.7 857 119.3 878.5 122.2L900 125L900 0L878.5 0C857 0 814 0 771.2 0C728.3 0 685.7 0 642.8 0C600 0 557 0 514.2 0C471.3 0 428.7 0 385.8 0C343 0 300 0 257.2 0C214.3 0 171.7 0 128.8 0C86 0 43 0 21.5 0L0 0Z" fill="#62611f"></path><path d="M0 76L21.5 74.8C43 73.7 86 71.3 128.8 67.7C171.7 64 214.3 59 257.2 57C300 55 343 56 385.8 56.5C428.7 57 471.3 57 514.2 62C557 67 600 77 642.8 76.3C685.7 75.7 728.3 64.3 771.2 64.8C814 65.3 857 77.7 878.5 83.8L900 90L900 0L878.5 0C857 0 814 0 771.2 0C728.3 0 685.7 0 642.8 0C600 0 557 0 514.2 0C471.3 0 428.7 0 385.8 0C343 0 300 0 257.2 0C214.3 0 171.7 0 128.8 0C86 0 43 0 21.5 0L0 0Z" fill="#566f22"></path><path d="M0 50L21.5 51C43 52 86 54 128.8 49C171.7 44 214.3 32 257.2 32C300 32 343 44 385.8 48.8C428.7 53.7 471.3 51.3 514.2 45.7C557 40 600 31 642.8 28.3C685.7 25.7 728.3 29.3 771.2 29C814 28.7 857 24.3 878.5 22.2L900 20L900 0L878.5 0C857 0 814 0 771.2 0C728.3 0 685.7 0 642.8 0C600 0 557 0 514.2 0C471.3 0 428.7 0 385.8 0C343 0 300 0 257.2 0C214.3 0 171.7 0 128.8 0C86 0 43 0 21.5 0L0 0Z" fill="#3f7c2e"></path></svg>